<svg version="1.1" xmlns="http://www.w3.org/2000/svg" style="display: block;" viewBox="0 0 2048 1777" width="1770" height="1536" preserveAspectRatio="none">
<path transform="translate(0,0)" fill="rgb(0,0,0)" d="M 1365.38 0 L 1421.7 0 C 1438.39 6.04133 1460.44 11.9022 1477.86 17.0435 L 1570.13 44.5794 C 1590.08 50.5702 1621.13 58.5025 1638.3 68.7649 C 1651.76 76.7735 1662.54 88.6027 1669.27 102.75 C 1685.73 137.309 1677.06 169.538 1675.14 206.135 C 1773.45 246.316 1873.86 280.279 1966.07 334.478 C 2008.42 359.376 2034.29 370.816 2048 421.292 L 2048 438.578 C 2040.66 470.569 2035.2 503.497 2027.95 535.561 C 2007.12 531.897 1986.44 527.474 1965.94 522.3 C 1965.98 539.304 1965.52 559.111 1966.12 575.869 C 1967.6 617.661 1961.2 627.964 1925.25 647.883 C 1919.62 686.34 1915.11 728.226 1910.42 767.012 L 1885.97 968.065 L 1810.98 1571.97 C 1826.46 1599.02 1825.47 1616.13 1825.4 1645.91 C 1825.31 1681.58 1824.16 1694.22 1795.13 1716.66 C 1830.28 1717.79 1996.4 1726.41 2018.27 1741.63 L 2019.46 1743.74 C 2013.24 1756.07 1927.42 1762.29 1912.11 1763.47 C 1863.72 1767.11 1815.26 1769.93 1766.77 1771.93 C 1755.91 1772.38 1686.59 1773.5 1681.79 1777 L 1032.88 1777 C 1026.07 1772.91 965.124 1772.37 952.481 1771.82 C 904.18 1769.69 855.911 1766.92 807.685 1763.5 C 791.113 1762.28 705.064 1755.72 698.927 1744.7 L 700 1742.33 C 720.22 1726.33 888.376 1718.01 922.735 1716.4 C 888.572 1694.37 893.142 1671.53 892.88 1635.61 C 892.687 1609.25 892.901 1597.7 905.535 1574.11 C 904.802 1551.97 897.843 1508.46 894.995 1484.79 L 873.783 1302.48 L 838.688 992.332 C 832.416 932.567 825.829 872.836 818.927 813.141 C 814.475 772.138 811.457 730.983 804.21 690.4 C 801.718 676.443 799.952 662.103 798.173 648.029 C 782.76 639.802 761.839 627.016 758.834 607.681 C 753.556 573.714 757.009 537.02 755.785 502.647 C 754.484 466.092 774.707 455.206 806.191 444.928 C 833.373 435.912 860.295 430.857 888.427 426.244 C 992.127 409.242 1097.77 401.431 1202.68 397.394 C 1301.36 393.317 1400.15 392.921 1498.86 396.207 C 1489.22 392.807 1476.55 389.688 1466.54 386.795 L 1408.48 369.699 L 1217.5 312.162 C 1130.08 285.529 1043.12 257.451 956.636 227.941 C 902.846 209.351 851.225 189.797 797.967 170.733 C 803.931 154.895 811.747 137.393 818.457 121.796 C 825.041 106.494 833.683 82.9197 843.374 69.6517 C 875.7 25.3958 942.03 35.7942 989.226 39.0426 C 1057.86 44.8353 1124.89 56.8867 1192.28 70.0432 C 1223.67 76.1716 1254.63 84.4846 1285.87 90.2112 C 1289.45 84.9714 1293.93 75.8563 1297.1 70.027 C 1316.58 34.1654 1325.1 13.8119 1365.38 0 z M 956.816 1565.96 C 968.175 1576.26 998.153 1585.34 1013.48 1589.2 C 1145.84 1622.5 1309.94 1632.14 1446.23 1625.42 C 1474.39 1624.16 1502.51 1622.22 1530.58 1619.61 C 1546.89 1617.95 1567.33 1614.57 1583.04 1613.63 L 1613.38 848.501 C 1637.54 845.569 1661.08 842.183 1685.15 838.975 C 1684.26 880.213 1681.38 923.978 1679.42 965.441 L 1672.29 1130 L 1668.58 1203.44 C 1667.8 1218.32 1666.48 1234.87 1666.79 1249.63 C 1669.88 1239.29 1671.32 1221.78 1672.74 1210.67 C 1676.58 1181.2 1680.04 1151.67 1683.11 1122.11 C 1690.95 1053.97 1699.13 985.861 1707.66 917.799 L 1714.15 864.173 C 1715.97 849.08 1715.61 829.065 1730.13 820.476 C 1736.72 816.624 1744.62 815.686 1751.93 817.885 C 1759.41 820.131 1765.59 825.42 1768.96 832.455 C 1774.13 843.26 1768.62 872.247 1767.02 885.095 L 1759.73 945.243 L 1747.6 1043.61 C 1744.85 1066.79 1742.45 1091.79 1739.23 1114.76 C 1728.95 1203.99 1718.08 1293.15 1706.63 1382.23 L 1695.14 1476.58 C 1693.25 1491.78 1691.91 1507.42 1688.99 1522.44 C 1687.04 1532.42 1681.07 1537.13 1672.91 1542.19 C 1695.9 1540.51 1708.51 1528.74 1711.72 1505.84 C 1717.89 1461.89 1722.59 1417.74 1728.08 1373.69 L 1763.28 1088.37 C 1770.24 1034.12 1776.9 979.821 1783.24 925.487 C 1785.52 906.307 1787.77 887.161 1789.8 867.957 C 1791.73 849.597 1791.74 836.23 1783.92 819.244 C 1798.81 815.168 1813.62 810.783 1828.33 806.094 L 1792.87 1240.94 L 1786.71 1315.09 C 1785.88 1324.94 1782.84 1351.72 1784.25 1360.02 C 1789.2 1348.26 1797.95 1254.06 1800.16 1235.82 L 1840.85 900.121 L 1852.42 805.596 C 1854.73 785.872 1857.05 760.842 1860.47 741.527 C 1624.82 806.782 1098.89 803.25 863.588 741.429 L 920.893 1252.94 L 943.567 1452.95 C 947.531 1487.92 951.393 1531.86 956.816 1565.96 z M 862.795 144.387 C 919.301 164.995 976.159 184.628 1033.34 203.275 C 1147.65 240.796 1262.55 276.495 1377.99 310.359 C 1431.54 326.55 1485.18 342.456 1538.9 358.077 C 1557.52 363.468 1593.94 375.192 1611.65 378.786 C 1616.43 363.793 1621.41 346.72 1626.59 332.043 L 1854.52 396.578 C 1889.93 406.493 1938.37 418.502 1972.14 429.944 C 1972.07 445.562 1965.28 463.649 1965.55 472.331 C 1967.1 473.658 1966.46 473.499 1968.23 473.919 C 1975.16 475.761 1983.39 478.184 1990.3 479.649 C 1993.46 464.51 2003.81 430.535 1995.58 419.572 C 1989.35 411.281 1938.62 398.839 1928.13 395.827 L 1828.81 367.545 C 1743.75 343.177 1658.82 318.32 1574.05 292.976 L 1499.01 270.633 C 1486.45 266.9 1430.6 254.267 1432.17 239.505 C 1433.74 237.337 1433.81 236.737 1436.96 236.091 C 1440.46 235.374 1447.42 236.505 1450.98 237.454 C 1494.14 248.966 1537.37 260.915 1580.44 272.727 L 1799.59 331.519 C 1836.98 341.367 1879.62 353.472 1917.31 361.287 C 1882.54 341.163 1825.28 317.081 1787.72 301.357 C 1694.79 263.347 1600.11 229.765 1503.99 200.725 C 1367.39 158.271 1228.53 120.945 1087.03 98.9961 C 1066.44 95.8025 1014.55 86.5951 994.462 87.1138 L 996.048 87.8111 C 1015.56 96.2907 1046.24 105.809 1067.44 113.241 C 1124.09 132.896 1180.88 152.17 1237.8 171.061 C 1256.05 177.083 1274.26 183.254 1292.42 189.573 C 1300.95 192.577 1328.74 199.313 1324.78 212.014 C 1316.67 218.428 1289.26 208.014 1279.02 205.028 L 1220.51 187.95 C 1141.81 164.386 1063.26 140.354 984.852 115.855 L 936.289 100.897 C 896.23 88.4386 884.962 80.3626 869.255 126.852 C 867.414 132.301 864.797 138.826 862.795 144.387 z M 1727.75 1634.54 C 1742.5 1629.87 1758.57 1624.86 1771.42 1616.07 L 1769.32 1605.36 C 1579.52 1673.77 1135.91 1677.29 947.595 1604.67 C 943.645 1615.53 945.303 1655 945.428 1669.04 C 994.585 1703.29 1152.54 1719.29 1216.12 1723.88 C 1295.18 1729.69 1374.51 1730.86 1453.71 1727.39 C 1469.95 1726.69 1509.66 1724.95 1524.74 1722.19 C 1525.48 1722.05 1526.23 1721.9 1526.97 1721.74 L 1527.32 1673.28 C 1596.34 1663.22 1660.17 1654.25 1727.75 1634.54 z M 1615.1 588.322 C 1700.76 578.204 1836.01 571.559 1913.56 536.987 C 1913.79 531.497 1914.15 525.562 1914.19 520.104 C 1837.51 543.117 1761.38 552.634 1681.84 559.92 C 1601.76 567.264 1521.41 571.353 1441 572.176 C 1254.12 575.242 1060.22 570.375 875.42 537.264 C 851.925 533.055 831.392 526.17 808.636 520.286 C 807.515 540.856 809.077 573.257 809.013 595.356 C 880.647 633.193 1099.71 645.29 1183.66 649.082 C 1329.69 656.124 1476 654.872 1621.89 645.334 C 1678.72 641.677 1869.78 625.553 1913.55 595.702 C 1914.19 592.413 1914.03 591.656 1913.8 588.418 C 1912.37 587.695 1867.88 599.424 1862.2 600.536 C 1783.83 615.902 1704.62 619.459 1625.33 626.741 L 1610.81 627.656 C 1612.72 615.844 1614.26 600.354 1615.1 588.322 z M 1606.16 677.963 C 1427.37 685.077 1243.14 688.877 1064.75 672.528 C 992.478 666.028 920.581 655.907 849.326 642.201 C 851.176 658.883 852.819 674.31 856.622 690.683 C 925.71 713.509 1012.93 723.268 1085.81 729.972 C 1230.48 743.27 1375.91 746.396 1521.01 739.328 C 1593.89 736.347 1666.58 729.745 1738.8 719.547 C 1765.33 715.651 1847.14 702.244 1866.73 689.35 L 1867.69 684.297 C 1866.78 683.139 1866.47 682.241 1865.13 682.528 C 1844.23 686.98 1815.74 692.648 1795.49 695.713 C 1753.04 702.283 1710.39 707.521 1667.61 711.419 C 1644.97 713.629 1616.38 715.312 1594.45 718.271 C 1598.46 704.865 1602.36 691.428 1606.16 677.963 z M 1343.43 105.171 C 1374.69 112.08 1413.16 123.501 1444.08 132.54 C 1492.84 146.822 1541.35 161.953 1589.59 177.927 L 1618.86 187.733 C 1622.36 163.558 1631.46 122.528 1601.19 111.382 C 1587.68 106.409 1572.94 102.356 1559.09 98.2118 L 1481.72 75.0697 L 1428.44 58.9767 C 1417.91 55.7936 1401.41 49.6835 1390.7 50.3517 C 1363.1 54.9043 1354.01 82.4821 1343.43 105.171 z"/>
<path transform="translate(0,0)" fill="rgb(0,0,0)" d="M 1354.54 837.181 C 1360.06 836.964 1364.37 836.947 1369.63 839.261 C 1376.3 842.209 1381.53 847.659 1384.21 854.433 C 1388.43 864.934 1386.23 1077.12 1386.25 1110.38 L 1386.48 1391.77 C 1386.46 1441.64 1386.52 1491.51 1386.04 1541.38 C 1385.85 1560.36 1381.91 1568.56 1363.53 1574.88 C 1358.21 1575.22 1353.11 1574.77 1348.18 1572.62 C 1341.92 1569.9 1336.64 1564.39 1334.33 1557.96 C 1329.68 1545.03 1332.16 1457.98 1332.16 1438.03 L 1332.15 1245.12 L 1332.12 995.566 C 1332.1 951.555 1331.88 907.516 1332.32 863.512 C 1332.47 848.409 1341.39 841.338 1354.54 837.181 z"/>
<path transform="translate(0,0)" fill="rgb(0,0,0)" d="M 1165.16 832.241 C 1170.25 831.874 1174.52 831.402 1179.54 832.744 C 1186.32 834.549 1192.06 839.061 1195.42 845.223 C 1198.11 850.074 1198.79 853.811 1199.1 859.25 C 1201.03 892.984 1202.54 926.89 1204.12 960.632 L 1212.7 1134.2 L 1226.01 1406.48 C 1228.08 1447.83 1230.52 1489.23 1232.86 1530.57 C 1233.07 1534.19 1232.51 1548.87 1231.15 1551.77 C 1227.81 1558.85 1220.4 1563.38 1213.7 1566.46 C 1192.88 1569.6 1179.93 1559.29 1178.74 1538.29 C 1177.06 1508.65 1175.63 1479.01 1174.04 1449.38 L 1162.03 1202.1 C 1157.69 1121.65 1153.78 1041.18 1150.3 960.689 C 1148.87 927.727 1147.2 894.777 1145.89 861.814 C 1145.24 845.613 1150.39 838.62 1165.16 832.241 z"/>
<path transform="translate(0,0)" fill="rgb(0,0,0)" d="M 1554.51 831.197 C 1559.45 831.637 1564.14 832.462 1568.56 834.835 C 1574.73 838.146 1579.72 844.022 1581.5 850.828 C 1584.89 863.787 1578.88 917.827 1577.69 935.296 L 1570.73 1042.41 L 1545.5 1430 C 1543.01 1464.63 1540.82 1499.28 1538.57 1533.92 C 1537.39 1552.22 1533.68 1563.1 1514.37 1567.37 C 1479.68 1566.44 1483.64 1539.74 1485.9 1515.02 C 1486.87 1504.46 1487.35 1493.25 1488.07 1482.63 L 1497.09 1352.1 L 1516.09 1053 C 1520.11 988.762 1524.57 924.526 1529.27 860.339 C 1530.57 842.596 1536.6 834.682 1554.51 831.197 z"/>
<path transform="translate(0,0)" fill="rgb(0,0,0)" d="M 983.358 812.081 C 1017.74 809.306 1015.77 837.559 1018.19 861.887 C 1019.41 874.259 1020.61 886.748 1021.81 899.113 L 1036.43 1050.89 L 1067.9 1366.99 C 1072.41 1412.48 1077.14 1457.96 1081.6 1503.45 C 1083.44 1522.14 1078.56 1531.53 1061.02 1538.63 C 1030.2 1542.29 1027.53 1517.25 1026.06 1494.51 C 1025.48 1485.51 1024.18 1475.75 1023.3 1466.67 L 1013.95 1370.57 L 977.116 994.503 C 972.591 946.587 967.284 898.725 963.059 850.777 C 961.255 830.305 961.873 819.86 983.358 812.081 z"/>
<path transform="translate(0,0)" fill="rgb(0,0,0)" d="M 408.292 0 L 440.867 0 C 449.345 1.91101 469.054 2.68068 478.988 3.82838 C 503.568 6.89791 527.722 12.741 550.988 21.2459 C 624.174 47.9737 683.895 102.44 717.231 172.862 C 753.011 251.495 756.647 340.997 727.365 422.274 C 705.875 480.102 663.966 535.72 606.929 562.412 C 576.431 576.684 530.395 585.867 498.034 573.254 C 474.759 564.183 466.161 549.617 456.607 528.209 C 445.924 543.238 435.506 557.989 421.697 570.412 C 391.928 597.317 352.642 611.211 312.576 609.004 C 277.072 607.395 243.738 591.455 220.196 564.828 C 184.778 525.343 173.636 466.526 176.412 414.115 C 182.255 303.792 261.211 188.311 382.769 194.999 C 417.172 196.892 441.867 213.839 463.963 239.475 C 465.651 223.221 466.556 206.877 468.273 190.52 C 500.205 185.582 532.188 180.976 564.216 176.702 C 558.48 232.165 554.987 291.512 550.301 347.487 L 544.651 417.175 C 543.451 432.198 541.769 447.104 542.112 462.198 C 542.388 474.329 548.285 490.786 561.81 493.299 C 573.566 495.483 587.301 488.465 596.606 481.815 C 635.37 454.114 654.24 407.874 661.285 362.154 C 671.579 296.105 659.04 223.173 619.424 168.468 C 538.984 57.3884 373.904 57.8921 262.469 117.441 C 250.212 123.992 238.068 131.686 226.754 139.857 C 155.67 191.782 108.149 269.84 94.6628 356.829 C 81.7744 437.267 94.0669 530.775 142.906 597.938 C 246.16 739.931 443.044 727.994 581.844 649.746 C 603.671 637.441 622.531 624.251 642.802 609.526 C 655.475 627.172 672.182 655.635 683.984 674.797 C 604.798 732.757 533.198 764.265 436.532 780.084 C 229.7 813.931 42.7232 701.213 10.3205 486.808 C -7.03324 376.019 20.2372 262.869 86.1564 172.149 C 145.771 90.1795 233.173 32.6993 332.052 10.4346 C 343.065 8.00295 355.516 5.66623 366.679 4.20187 C 379.756 2.48647 394.433 2.17852 407.361 0.152234 L 408.292 0 z M 356.871 517.6 C 433.156 503.474 461.76 410.063 449.736 342.216 C 442.661 302.298 414.805 274.972 372.702 279.349 C 251.187 294.867 240.765 530.958 356.871 517.6 z"/>
</svg>
